<svg xmlns="http://www.w3.org/2000/svg" version="1.1" xmlns:xlink="http://www.w3.org/1999/xlink" xmlns:svgjs="http://svgjs.dev/svgjs" width="1500" height="935" viewBox="0 0 1500 935"><g transform="matrix(1,0,0,1,-0.9090909090909918,0.3785425101214628)"><svg viewBox="0 0 396 247" data-background-color="#ffffff" preserveAspectRatio="xMidYMid meet" height="935" width="1500" xmlns="http://www.w3.org/2000/svg" xmlns:xlink="http://www.w3.org/1999/xlink"><g id="tight-bounds" transform="matrix(1,0,0,1,0.2400000000000091,-0.09999999999999432)"><svg viewBox="0 0 395.52 247.2" height="247.2" width="395.52"><g><svg></svg></g><g><svg viewBox="0 0 395.52 247.2" height="247.2" width="395.52"><mask id="5ba179f1-429f-4200-88e8-9cb64a22c7f1"><rect width="640" height="400" fill="white"></rect><g transform="matrix(1,0,0,1,39.55199999999999,97.29910419161676)"><svg viewBox="0 0 316.416 52.60179161676647" height="52.60179161676647" width="316.416"><g><svg viewBox="0 0 316.416 52.60179161676647" height="52.60179161676647" width="316.416"><g><svg viewBox="0 0 316.416 52.60179161676647" height="52.60179161676647" width="316.416"><g><svg viewBox="0 0 316.416 52.60179161676647" height="52.60179161676647" width="316.416"><g id="SvgjsG1554"><svg viewBox="0 0 316.416 52.60179161676647" height="52.60179161676647" width="316.416" id="SvgjsSvg1553"><g><svg viewBox="0 0 316.416 52.60179161676647" height="52.60179161676647" width="316.416"><g transform="matrix(1,0,0,1,0,0)"><svg width="316.416" viewBox="-0.4700000000000002 -41.33 334.97 56.529999999999994" height="52.60179161676647" data-palette-color="#baba0c"><path d="M23.68-33.13L5.88-33.13 7.8-35.55 7.8-18.9 6.75-20.38 20.9-20.38 20.9-16.63 6.75-16.63 7.8-18.1 7.8-1.33 5.88-3.75 23.68-3.75 23.68 0 3.53 0 3.53-36.88 23.68-36.88 23.68-33.13ZM38.3 0.5L38.3 0.5Q35.27 0.5 33.01-0.45 30.75-1.4 29.5-3.19 28.25-4.98 28.25-7.48L28.25-7.48Q28.25-10.08 29.6-11.81 30.95-13.55 33.4-14.53 35.85-15.5 39.1-15.83L39.1-15.83Q44-16.32 46.07-16.81 48.15-17.3 48.15-18.4L48.15-18.4Q48.15-18.43 48.15-18.44 48.15-18.45 48.15-18.48L48.15-18.48Q48.15-20.78 46.27-21.91 44.4-23.05 40.85-23.05L40.85-23.05Q37.15-23.05 35.1-21.76 33.05-20.48 33.05-17.6L33.05-17.6 28.85-17.6Q28.85-20.58 30.37-22.66 31.9-24.75 34.61-25.85 37.32-26.95 40.87-26.95L40.87-26.95Q44.12-26.95 46.73-25.96 49.35-24.98 50.89-23.04 52.42-21.1 52.42-18.25L52.42-18.25Q52.42-17.73 52.42-17.21 52.42-16.7 52.42-16.18L52.42-16.18 52.42-5Q52.42-4.13 52.5-3.3 52.57-2.48 52.75-1.85L52.75-1.85Q52.97-1.1 53.25-0.64 53.52-0.18 53.7 0L53.7 0 49.42 0Q49.3-0.13 49.05-0.59 48.8-1.05 48.57-1.68L48.57-1.68Q48.4-2.18 48.3-2.94 48.2-3.7 48.2-4.53L48.2-4.53 48.9-4.05Q48.12-2.7 46.64-1.68 45.15-0.65 43.05-0.08 40.95 0.5 38.3 0.5ZM38.97-3.33L38.97-3.33Q41.55-3.33 43.62-4.11 45.7-4.9 46.92-6.45 48.15-8 48.15-10.3L48.15-10.3 48.15-15.58 49.1-13.98Q47.5-13.35 45.11-12.96 42.72-12.58 40.12-12.33L40.12-12.33Q36.35-11.98 34.44-11 32.52-10.03 32.52-7.73L32.52-7.73Q32.52-5.55 34.1-4.44 35.67-3.33 38.97-3.33ZM69.62 0.5L69.62 0.5Q67.22 0.5 65.18-0.01 63.15-0.53 61.63-1.51 60.12-2.5 59.28-3.95 58.45-5.4 58.45-7.28L58.45-7.28Q58.45-7.48 58.45-7.69 58.45-7.9 58.45-8.05L58.45-8.05 62.72-8.05Q62.72-7.9 62.72-7.8 62.72-7.7 62.72-7.5L62.72-7.5Q62.72-5.48 64.6-4.41 66.47-3.35 69.72-3.35L69.72-3.35Q71.72-3.35 73.3-3.75 74.87-4.15 75.78-4.98 76.7-5.8 76.7-7.05L76.7-7.05Q76.7-9.13 74.76-10.01 72.82-10.9 68.97-11.55L68.97-11.55Q66.95-11.9 65.12-12.46 63.3-13.03 61.88-13.93 60.47-14.83 59.66-16.16 58.85-17.5 58.85-19.38L58.85-19.38Q58.85-21.8 60.28-23.49 61.72-25.18 64.17-26.06 66.62-26.95 69.62-26.95L69.62-26.95Q72.52-26.95 74.97-26.03 77.42-25.1 78.91-23.34 80.4-21.58 80.4-19L80.4-19Q80.4-18.9 80.4-18.76 80.4-18.63 80.4-18.5L80.4-18.5 76.15-18.5Q76.15-18.63 76.15-18.7 76.15-18.78 76.15-18.88L76.15-18.88Q76.15-20.33 75.22-21.26 74.3-22.2 72.82-22.66 71.35-23.13 69.67-23.13L69.67-23.13Q68.1-23.13 66.57-22.79 65.05-22.45 64.05-21.68 63.05-20.9 63.05-19.55L63.05-19.55Q63.05-18.2 63.98-17.39 64.92-16.57 66.63-16.06 68.35-15.55 70.67-15.13L70.67-15.13Q72.75-14.75 74.6-14.19 76.45-13.63 77.86-12.75 79.27-11.88 80.08-10.54 80.9-9.2 80.9-7.28L80.9-7.28Q80.9-5.33 80.01-3.88 79.12-2.43 77.56-1.45 76-0.48 73.96 0.01 71.92 0.5 69.62 0.5ZM86.69 11.2L86.69 11.2Q85.69 11.2 84.87 11.09 84.04 10.98 83.84 10.88L83.84 10.88 83.84 7.18Q84.17 7.33 84.92 7.43 85.67 7.53 86.42 7.53L86.42 7.53Q88.02 7.53 89.12 6.86 90.22 6.2 90.97 5.06 91.72 3.93 92.19 2.5L92.19 2.5 92.99 0.15 83.84-26.55 88.29-26.55 95.64-3.68 95.04-3.68 102.24-26.55 106.62-26.55 96.89 2.27Q96.07 4.7 94.91 6.73 93.74 8.75 91.81 9.98 89.87 11.2 86.69 11.2ZM115.82 0L111.64 0 111.64-36.88 124.44-36.88Q129.52-36.88 132.17-34.48 134.81-32.08 134.81-27.15L134.81-27.15Q134.81-24.2 133.7-22.14 132.59-20.08 131.03-18.95 129.47-17.82 128.14-17.68L128.14-17.68Q129.49-17.57 130.8-16.94 132.12-16.3 132.99-14.98 133.87-13.65 133.87-11.43L133.87-11.43Q133.87-9.38 133.87-7.24 133.87-5.1 133.87-3.03L133.87-3.03Q133.87-1.95 134.04-1.11 134.22-0.28 134.44 0L134.44 0 130.14 0Q129.97-0.33 129.79-1.13 129.62-1.93 129.62-3.03L129.62-3.03Q129.62-4.95 129.62-6.95 129.62-8.95 129.62-10.9L129.62-10.9Q129.62-13.35 128.06-14.55 126.52-15.75 123.69-15.75L123.69-15.75 114.62-15.75 115.82-17.38 115.82 0ZM115.82-34.98L115.82-17.73 114.62-19.5 123.74-19.5Q125.59-19.5 127.1-20.41 128.62-21.33 129.53-22.96 130.44-24.6 130.44-26.8L130.44-26.8Q130.44-30.23 128.64-31.68 126.84-33.13 123.44-33.13L123.44-33.13 114.52-33.13 115.82-34.98ZM167.29-11.58L143.06-11.58 143.06-15.38 163.59-15.38 162.84-14.13Q162.84-14.28 162.84-14.41 162.84-14.55 162.84-14.68L162.84-14.68Q162.84-16.98 161.88-18.89 160.91-20.8 159.01-21.95 157.11-23.1 154.31-23.1L154.31-23.1Q151.49-23.1 149.34-21.9 147.19-20.7 145.99-18.51 144.79-16.32 144.79-13.3L144.79-13.3Q144.79-10.23 145.95-8 147.11-5.78 149.26-4.58 151.41-3.38 154.36-3.38L154.36-3.38Q156.46-3.38 158.01-3.81 159.56-4.25 160.58-4.99 161.59-5.73 162.11-6.6 162.64-7.48 162.74-8.35L162.74-8.35 166.99-8.35Q166.86-6.75 165.99-5.18 165.11-3.6 163.51-2.31 161.91-1.03 159.59-0.25 157.26 0.53 154.24 0.53L154.24 0.53Q150.24 0.53 147.19-1.23 144.14-2.98 142.4-6.08 140.66-9.18 140.66-13.2L140.66-13.2Q140.66-17.28 142.41-20.36 144.16-23.45 147.24-25.2 150.31-26.95 154.26-26.95L154.26-26.95Q158.29-26.95 161.24-25.2 164.19-23.45 165.79-20.41 167.39-17.38 167.39-13.5L167.39-13.5Q167.39-13.1 167.36-12.45 167.34-11.8 167.29-11.58L167.29-11.58ZM197.26 0L193.01 0 193.01-12.73Q193.01-13.88 193.01-14.61 193.01-15.35 193.01-16.03L193.01-16.03Q193.01-18.1 192.31-19.65 191.61-21.2 190.11-22.05 188.61-22.9 186.19-22.9L186.19-22.9Q184.06-22.9 182.25-21.81 180.44-20.73 179.35-18.89 178.26-17.05 178.26-14.78L178.26-14.78 175.84-15.7Q175.84-18.82 177.37-21.38 178.91-23.93 181.47-25.44 184.03-26.95 187.06-26.95L187.06-26.95Q190.13-26.95 192.44-25.78 194.74-24.6 196-22.41 197.26-20.23 197.26-17.15L197.26-17.15Q197.26-16.05 197.26-14.75 197.26-13.45 197.26-12.33L197.26-12.33 197.26 0ZM178.26 0L174.01 0 174.01-26.55 178.26-26.55 178.26 0ZM214.41 0.4L214.41 0.4Q213.18 0.4 212.01 0.13 210.83-0.15 209.9-0.86 208.96-1.58 208.41-2.89 207.86-4.2 207.86-6.28L207.86-6.28Q207.86-6.8 207.86-7.36 207.86-7.93 207.86-8.55L207.86-8.55 207.86-22.8 201.38-22.8 201.38-26.55 205.53-26.55Q206.38-26.55 206.86-26.61 207.33-26.68 207.55-26.94 207.76-27.2 207.81-27.76 207.86-28.33 207.86-29.33L207.86-29.33 207.86-35.35 212.13-35.35 212.13-26.55 220.43-26.55 220.43-22.8 212.13-22.8 212.13-9.93Q212.13-9.38 212.13-8.85 212.13-8.33 212.13-7.88L212.13-7.88Q212.13-5.75 212.65-4.55 213.16-3.35 214.96-3.35L214.96-3.35Q215.68-3.35 216.33-3.48 216.98-3.6 217.31-3.73L217.31-3.73 217.31-0.03Q216.88 0.13 216.12 0.26 215.36 0.4 214.41 0.4ZM248.38-12.83L252.66-12.83Q252.66-10.6 251.83-8.26 251-5.93 249.34-3.94 247.68-1.95 245.16-0.73 242.63 0.5 239.23 0.5L239.23 0.5Q234.56 0.5 231.28-1.94 228-4.38 226.29-8.65 224.58-12.93 224.58-18.43L224.58-18.43Q224.58-23.95 226.29-28.21 228-32.48 231.28-34.9 234.56-37.33 239.23-37.33L239.23-37.33Q243.13-37.33 245.88-35.73 248.63-34.13 250.25-31.65 251.88-29.18 252.38-26.55L252.38-26.55Q252.66-25.23 252.66-24.05L252.66-24.05 248.38-24.05Q248.38-24.73 248.25-25.6L248.25-25.6Q247.96-27.7 246.82-29.49 245.68-31.28 243.78-32.36 241.88-33.45 239.23-33.45L239.23-33.45Q236.13-33.45 233.82-31.75 231.5-30.05 230.22-26.7 228.93-23.35 228.93-18.43L228.93-18.43Q228.93-13.5 230.22-10.14 231.5-6.78 233.82-5.06 236.13-3.35 239.23-3.35L239.23-3.35Q241.46-3.35 243.16-4.16 244.86-4.98 246.02-6.34 247.18-7.7 247.78-9.39 248.38-11.08 248.38-12.83L248.38-12.83ZM268.28 0.5L268.28 0.5Q265.25 0.5 262.99-0.45 260.73-1.4 259.48-3.19 258.23-4.98 258.23-7.48L258.23-7.48Q258.23-10.08 259.58-11.81 260.93-13.55 263.38-14.53 265.83-15.5 269.08-15.83L269.08-15.83Q273.98-16.32 276.05-16.81 278.13-17.3 278.13-18.4L278.13-18.4Q278.13-18.43 278.13-18.44 278.13-18.45 278.13-18.48L278.13-18.48Q278.13-20.78 276.25-21.91 274.38-23.05 270.83-23.05L270.83-23.05Q267.13-23.05 265.08-21.76 263.03-20.48 263.03-17.6L263.03-17.6 258.83-17.6Q258.83-20.58 260.35-22.66 261.88-24.75 264.59-25.85 267.3-26.95 270.85-26.95L270.85-26.95Q274.1-26.95 276.72-25.96 279.33-24.98 280.87-23.04 282.4-21.1 282.4-18.25L282.4-18.25Q282.4-17.73 282.4-17.21 282.4-16.7 282.4-16.18L282.4-16.18 282.4-5Q282.4-4.13 282.48-3.3 282.55-2.48 282.73-1.85L282.73-1.85Q282.95-1.1 283.23-0.64 283.5-0.18 283.68 0L283.68 0 279.4 0Q279.28-0.13 279.03-0.59 278.78-1.05 278.55-1.68L278.55-1.68Q278.38-2.18 278.28-2.94 278.18-3.7 278.18-4.53L278.18-4.53 278.88-4.05Q278.1-2.7 276.62-1.68 275.13-0.65 273.03-0.08 270.93 0.5 268.28 0.5ZM268.95-3.33L268.95-3.33Q271.53-3.33 273.6-4.11 275.68-4.9 276.9-6.45 278.13-8 278.13-10.3L278.13-10.3 278.13-15.58 279.08-13.98Q277.48-13.35 275.09-12.96 272.7-12.58 270.1-12.33L270.1-12.33Q266.33-11.98 264.42-11 262.5-10.03 262.5-7.73L262.5-7.73Q262.5-5.55 264.08-4.44 265.65-3.33 268.95-3.33ZM293.7 0L289.45 0 289.45-26.55 293.7-26.55 293.7-18.4 292.3-18.9Q292.45-20.38 293.05-21.81 293.65-23.25 294.71-24.41 295.77-25.58 297.38-26.26 298.98-26.95 301.13-26.95L301.13-26.95Q302.73-26.95 303.74-26.69 304.75-26.43 305-26.28L305-26.28 303.9-22.1Q303.65-22.28 302.89-22.55 302.13-22.83 300.73-22.83L300.73-22.83Q298.65-22.83 297.29-22.08 295.93-21.33 295.14-20.09 294.35-18.85 294.02-17.4 293.7-15.95 293.7-14.53L293.7-14.53 293.7 0ZM319.22 0.5L319.22 0.5Q316.82 0.5 314.79-0.01 312.75-0.53 311.24-1.51 309.72-2.5 308.88-3.95 308.05-5.4 308.05-7.28L308.05-7.28Q308.05-7.48 308.05-7.69 308.05-7.9 308.05-8.05L308.05-8.05 312.32-8.05Q312.32-7.9 312.32-7.8 312.32-7.7 312.32-7.5L312.32-7.5Q312.32-5.48 314.2-4.41 316.07-3.35 319.32-3.35L319.32-3.35Q321.32-3.35 322.9-3.75 324.47-4.15 325.38-4.98 326.3-5.8 326.3-7.05L326.3-7.05Q326.3-9.13 324.36-10.01 322.42-10.9 318.57-11.55L318.57-11.55Q316.55-11.9 314.72-12.46 312.9-13.03 311.49-13.93 310.07-14.83 309.26-16.16 308.45-17.5 308.45-19.38L308.45-19.38Q308.45-21.8 309.88-23.49 311.32-25.18 313.77-26.06 316.22-26.95 319.22-26.95L319.22-26.95Q322.12-26.95 324.57-26.03 327.02-25.1 328.51-23.34 330-21.58 330-19L330-19Q330-18.9 330-18.76 330-18.63 330-18.5L330-18.5 325.75-18.5Q325.75-18.63 325.75-18.7 325.75-18.78 325.75-18.88L325.75-18.88Q325.75-20.33 324.82-21.26 323.9-22.2 322.42-22.66 320.95-23.13 319.27-23.13L319.27-23.13Q317.7-23.13 316.17-22.79 314.65-22.45 313.65-21.68 312.65-20.9 312.65-19.55L312.65-19.55Q312.65-18.2 313.58-17.39 314.52-16.57 316.24-16.06 317.95-15.55 320.27-15.13L320.27-15.13Q322.35-14.75 324.2-14.19 326.05-13.63 327.46-12.75 328.87-11.88 329.69-10.54 330.5-9.2 330.5-7.28L330.5-7.28Q330.5-5.33 329.61-3.88 328.72-2.43 327.16-1.45 325.6-0.48 323.56 0.01 321.52 0.5 319.22 0.5Z" opacity="1" transform="matrix(1,0,0,1,0,0)" fill="black" class="wordmark-text-0" id="SvgjsPath1552" stroke-width="7" stroke="black" stroke-linejoin="round"></path></svg></g></svg></g></svg></g></svg></g></svg></g></svg></g></svg></g></mask><g transform="matrix(1,0,0,1,39.55199999999999,97.29910419161676)"><svg viewBox="0 0 316.416 52.60179161676647" height="52.60179161676647" width="316.416"><g><svg viewBox="0 0 316.416 52.60179161676647" height="52.60179161676647" width="316.416"><g><svg viewBox="0 0 316.416 52.60179161676647" height="52.60179161676647" width="316.416"><g><svg viewBox="0 0 316.416 52.60179161676647" height="52.60179161676647" width="316.416"><g id="textblocktransform"><svg viewBox="0 0 316.416 52.60179161676647" height="52.60179161676647" width="316.416" id="textblock"><g><svg viewBox="0 0 316.416 52.60179161676647" height="52.60179161676647" width="316.416"><g transform="matrix(1,0,0,1,0,0)"><svg width="316.416" viewBox="-0.4700000000000002 -41.33 334.97 56.529999999999994" height="52.60179161676647" data-palette-color="#baba0c"><path d="M23.68-33.13L5.88-33.13 7.8-35.55 7.8-18.9 6.75-20.38 20.9-20.38 20.9-16.63 6.75-16.63 7.8-18.1 7.8-1.33 5.88-3.75 23.68-3.75 23.68 0 3.53 0 3.53-36.88 23.68-36.88 23.68-33.13ZM38.3 0.5L38.3 0.5Q35.27 0.5 33.01-0.45 30.75-1.4 29.5-3.19 28.25-4.98 28.25-7.48L28.25-7.48Q28.25-10.08 29.6-11.81 30.95-13.55 33.4-14.53 35.85-15.5 39.1-15.83L39.1-15.83Q44-16.32 46.07-16.81 48.15-17.3 48.15-18.4L48.15-18.4Q48.15-18.43 48.15-18.44 48.15-18.45 48.15-18.48L48.15-18.48Q48.15-20.78 46.27-21.91 44.4-23.05 40.85-23.05L40.85-23.05Q37.15-23.05 35.1-21.76 33.05-20.48 33.05-17.6L33.05-17.6 28.85-17.6Q28.85-20.58 30.37-22.66 31.9-24.75 34.61-25.85 37.32-26.95 40.87-26.95L40.87-26.95Q44.12-26.95 46.73-25.96 49.35-24.98 50.89-23.04 52.42-21.1 52.42-18.25L52.42-18.25Q52.42-17.73 52.42-17.21 52.42-16.7 52.42-16.18L52.42-16.18 52.42-5Q52.42-4.13 52.5-3.3 52.57-2.48 52.75-1.85L52.75-1.85Q52.97-1.1 53.25-0.64 53.52-0.18 53.7 0L53.7 0 49.42 0Q49.3-0.13 49.05-0.59 48.8-1.05 48.57-1.68L48.57-1.68Q48.4-2.18 48.3-2.94 48.2-3.7 48.2-4.53L48.2-4.53 48.9-4.05Q48.12-2.7 46.64-1.68 45.15-0.65 43.05-0.08 40.95 0.5 38.3 0.5ZM38.97-3.33L38.97-3.33Q41.55-3.33 43.62-4.11 45.7-4.9 46.92-6.45 48.15-8 48.15-10.3L48.15-10.3 48.15-15.58 49.1-13.98Q47.5-13.35 45.11-12.96 42.72-12.58 40.12-12.33L40.12-12.33Q36.35-11.98 34.44-11 32.52-10.03 32.52-7.73L32.52-7.73Q32.52-5.55 34.1-4.44 35.67-3.33 38.97-3.33ZM69.62 0.5L69.62 0.5Q67.22 0.5 65.18-0.01 63.15-0.53 61.63-1.51 60.12-2.5 59.28-3.95 58.45-5.4 58.45-7.28L58.45-7.28Q58.45-7.48 58.45-7.69 58.45-7.9 58.45-8.05L58.45-8.05 62.72-8.05Q62.72-7.9 62.72-7.8 62.72-7.7 62.72-7.5L62.72-7.5Q62.72-5.48 64.6-4.41 66.47-3.35 69.72-3.35L69.72-3.35Q71.72-3.35 73.3-3.75 74.87-4.15 75.78-4.98 76.7-5.8 76.7-7.05L76.7-7.05Q76.7-9.13 74.76-10.01 72.82-10.9 68.97-11.55L68.97-11.55Q66.95-11.9 65.12-12.46 63.3-13.03 61.88-13.93 60.47-14.83 59.66-16.16 58.85-17.5 58.85-19.38L58.85-19.38Q58.85-21.8 60.28-23.49 61.72-25.18 64.17-26.06 66.62-26.95 69.62-26.95L69.62-26.95Q72.52-26.95 74.97-26.03 77.42-25.1 78.91-23.34 80.4-21.58 80.4-19L80.4-19Q80.4-18.9 80.4-18.76 80.4-18.63 80.4-18.5L80.4-18.5 76.15-18.5Q76.15-18.63 76.15-18.7 76.15-18.78 76.15-18.88L76.15-18.88Q76.15-20.33 75.22-21.26 74.3-22.2 72.82-22.66 71.35-23.13 69.67-23.13L69.67-23.13Q68.1-23.13 66.57-22.79 65.05-22.45 64.05-21.68 63.05-20.9 63.05-19.55L63.05-19.55Q63.05-18.2 63.98-17.39 64.92-16.57 66.63-16.06 68.35-15.55 70.67-15.13L70.67-15.13Q72.75-14.75 74.6-14.19 76.45-13.63 77.86-12.75 79.27-11.88 80.08-10.54 80.9-9.2 80.9-7.28L80.9-7.28Q80.9-5.33 80.01-3.88 79.12-2.43 77.56-1.45 76-0.48 73.96 0.01 71.92 0.5 69.62 0.5ZM86.69 11.2L86.69 11.2Q85.69 11.2 84.87 11.09 84.04 10.98 83.84 10.88L83.84 10.88 83.84 7.18Q84.17 7.33 84.92 7.43 85.67 7.53 86.42 7.53L86.42 7.53Q88.02 7.53 89.12 6.86 90.22 6.2 90.97 5.06 91.72 3.93 92.19 2.5L92.19 2.5 92.99 0.15 83.84-26.55 88.29-26.55 95.64-3.68 95.04-3.68 102.24-26.55 106.62-26.55 96.89 2.27Q96.07 4.7 94.91 6.73 93.74 8.75 91.81 9.98 89.87 11.2 86.69 11.2ZM115.82 0L111.64 0 111.64-36.88 124.44-36.88Q129.52-36.88 132.17-34.48 134.81-32.08 134.81-27.15L134.81-27.15Q134.81-24.2 133.7-22.14 132.59-20.08 131.03-18.95 129.47-17.82 128.14-17.68L128.14-17.68Q129.49-17.57 130.8-16.94 132.12-16.3 132.99-14.98 133.87-13.65 133.87-11.43L133.87-11.43Q133.87-9.38 133.87-7.24 133.87-5.1 133.87-3.03L133.87-3.03Q133.87-1.95 134.04-1.11 134.22-0.28 134.44 0L134.44 0 130.14 0Q129.97-0.33 129.79-1.13 129.62-1.93 129.62-3.03L129.62-3.03Q129.62-4.95 129.62-6.95 129.62-8.95 129.62-10.9L129.62-10.9Q129.62-13.35 128.06-14.55 126.52-15.75 123.69-15.75L123.69-15.75 114.62-15.75 115.82-17.38 115.82 0ZM115.82-34.98L115.82-17.73 114.62-19.5 123.74-19.5Q125.59-19.5 127.1-20.41 128.62-21.33 129.53-22.96 130.44-24.6 130.44-26.8L130.44-26.8Q130.44-30.23 128.64-31.68 126.84-33.13 123.44-33.13L123.44-33.13 114.52-33.13 115.82-34.98ZM167.29-11.58L143.06-11.58 143.06-15.38 163.59-15.38 162.84-14.13Q162.84-14.28 162.84-14.41 162.84-14.55 162.84-14.68L162.84-14.68Q162.84-16.98 161.88-18.89 160.91-20.8 159.01-21.95 157.11-23.1 154.31-23.1L154.31-23.1Q151.49-23.1 149.34-21.9 147.19-20.7 145.99-18.51 144.79-16.32 144.79-13.3L144.79-13.3Q144.79-10.23 145.95-8 147.11-5.78 149.26-4.58 151.41-3.38 154.36-3.38L154.36-3.38Q156.46-3.38 158.01-3.81 159.56-4.25 160.58-4.99 161.59-5.73 162.11-6.6 162.64-7.48 162.74-8.35L162.74-8.35 166.99-8.35Q166.86-6.75 165.99-5.18 165.11-3.6 163.51-2.31 161.91-1.03 159.59-0.25 157.26 0.53 154.24 0.53L154.24 0.53Q150.24 0.53 147.19-1.23 144.14-2.98 142.4-6.08 140.66-9.18 140.66-13.2L140.66-13.2Q140.66-17.28 142.41-20.36 144.16-23.45 147.24-25.2 150.31-26.95 154.26-26.95L154.26-26.95Q158.29-26.95 161.24-25.2 164.19-23.45 165.79-20.41 167.39-17.38 167.39-13.5L167.39-13.5Q167.39-13.1 167.36-12.45 167.34-11.8 167.29-11.58L167.29-11.58ZM197.26 0L193.01 0 193.01-12.73Q193.01-13.88 193.01-14.61 193.01-15.35 193.01-16.03L193.01-16.03Q193.01-18.1 192.31-19.65 191.61-21.2 190.11-22.05 188.61-22.9 186.19-22.9L186.19-22.9Q184.06-22.9 182.25-21.81 180.44-20.73 179.35-18.89 178.26-17.05 178.26-14.78L178.26-14.78 175.84-15.7Q175.84-18.82 177.37-21.38 178.91-23.93 181.47-25.44 184.03-26.95 187.06-26.95L187.06-26.95Q190.13-26.95 192.44-25.78 194.74-24.6 196-22.41 197.26-20.23 197.26-17.15L197.26-17.15Q197.26-16.05 197.26-14.75 197.26-13.45 197.26-12.33L197.26-12.33 197.26 0ZM178.26 0L174.01 0 174.01-26.55 178.26-26.55 178.26 0ZM214.41 0.4L214.41 0.4Q213.18 0.4 212.01 0.13 210.83-0.15 209.9-0.86 208.96-1.58 208.41-2.89 207.86-4.2 207.86-6.28L207.86-6.28Q207.86-6.8 207.86-7.36 207.86-7.93 207.86-8.55L207.86-8.55 207.86-22.8 201.38-22.8 201.38-26.55 205.53-26.55Q206.38-26.55 206.86-26.61 207.33-26.68 207.55-26.94 207.76-27.2 207.81-27.76 207.86-28.33 207.86-29.33L207.86-29.33 207.86-35.35 212.13-35.35 212.13-26.55 220.43-26.55 220.43-22.8 212.13-22.8 212.13-9.93Q212.13-9.38 212.13-8.85 212.13-8.33 212.13-7.88L212.13-7.88Q212.13-5.75 212.65-4.55 213.16-3.35 214.96-3.35L214.96-3.35Q215.68-3.35 216.33-3.48 216.98-3.6 217.31-3.73L217.31-3.73 217.31-0.03Q216.88 0.13 216.12 0.26 215.36 0.4 214.41 0.4ZM248.38-12.83L252.66-12.83Q252.66-10.6 251.83-8.26 251-5.93 249.34-3.94 247.68-1.95 245.16-0.73 242.63 0.5 239.23 0.5L239.23 0.5Q234.56 0.5 231.28-1.94 228-4.38 226.29-8.65 224.58-12.93 224.58-18.43L224.58-18.43Q224.58-23.95 226.29-28.21 228-32.48 231.28-34.9 234.56-37.33 239.23-37.33L239.23-37.33Q243.13-37.33 245.88-35.73 248.63-34.13 250.25-31.65 251.88-29.18 252.38-26.55L252.38-26.55Q252.66-25.23 252.66-24.05L252.66-24.05 248.38-24.05Q248.38-24.73 248.25-25.6L248.25-25.6Q247.96-27.7 246.82-29.49 245.68-31.28 243.78-32.36 241.88-33.45 239.23-33.45L239.23-33.45Q236.13-33.45 233.82-31.75 231.5-30.05 230.22-26.7 228.93-23.35 228.93-18.43L228.93-18.43Q228.93-13.5 230.22-10.14 231.5-6.78 233.82-5.06 236.13-3.35 239.23-3.35L239.23-3.35Q241.46-3.35 243.16-4.16 244.86-4.98 246.02-6.34 247.18-7.7 247.78-9.39 248.38-11.08 248.38-12.83L248.38-12.83ZM268.28 0.5L268.28 0.5Q265.25 0.5 262.99-0.45 260.73-1.4 259.48-3.19 258.23-4.98 258.23-7.48L258.23-7.48Q258.23-10.08 259.58-11.81 260.93-13.55 263.38-14.53 265.83-15.5 269.08-15.83L269.08-15.83Q273.98-16.32 276.05-16.81 278.13-17.3 278.13-18.4L278.13-18.4Q278.13-18.43 278.13-18.44 278.13-18.45 278.13-18.48L278.13-18.48Q278.13-20.78 276.25-21.91 274.38-23.05 270.83-23.05L270.83-23.05Q267.13-23.05 265.08-21.76 263.03-20.48 263.03-17.6L263.03-17.6 258.83-17.6Q258.83-20.58 260.35-22.66 261.88-24.75 264.59-25.85 267.3-26.95 270.85-26.95L270.85-26.95Q274.1-26.95 276.72-25.96 279.33-24.98 280.87-23.04 282.4-21.1 282.4-18.25L282.4-18.25Q282.4-17.73 282.4-17.21 282.4-16.7 282.4-16.18L282.4-16.18 282.4-5Q282.4-4.13 282.48-3.3 282.55-2.48 282.73-1.85L282.73-1.85Q282.95-1.1 283.23-0.64 283.5-0.18 283.68 0L283.68 0 279.4 0Q279.28-0.13 279.03-0.59 278.78-1.05 278.55-1.68L278.55-1.68Q278.38-2.18 278.28-2.94 278.18-3.7 278.18-4.53L278.18-4.53 278.88-4.05Q278.1-2.7 276.62-1.68 275.13-0.65 273.03-0.08 270.93 0.5 268.28 0.5ZM268.95-3.33L268.95-3.33Q271.53-3.33 273.6-4.11 275.68-4.9 276.9-6.45 278.13-8 278.13-10.3L278.13-10.3 278.13-15.58 279.08-13.98Q277.48-13.35 275.09-12.96 272.7-12.58 270.1-12.33L270.1-12.33Q266.33-11.98 264.42-11 262.5-10.03 262.5-7.73L262.5-7.73Q262.5-5.55 264.08-4.44 265.65-3.33 268.95-3.33ZM293.7 0L289.45 0 289.45-26.55 293.7-26.55 293.7-18.4 292.3-18.9Q292.45-20.38 293.05-21.81 293.65-23.25 294.71-24.41 295.77-25.58 297.38-26.26 298.98-26.95 301.13-26.95L301.13-26.95Q302.73-26.95 303.74-26.69 304.75-26.43 305-26.28L305-26.28 303.9-22.1Q303.65-22.28 302.89-22.55 302.13-22.83 300.73-22.83L300.73-22.83Q298.65-22.83 297.29-22.08 295.93-21.33 295.14-20.09 294.35-18.85 294.02-17.4 293.7-15.95 293.7-14.53L293.7-14.53 293.7 0ZM319.22 0.5L319.22 0.5Q316.82 0.5 314.79-0.01 312.75-0.53 311.24-1.51 309.72-2.5 308.88-3.95 308.05-5.4 308.05-7.28L308.05-7.28Q308.05-7.48 308.05-7.69 308.05-7.9 308.05-8.05L308.05-8.05 312.32-8.05Q312.32-7.9 312.32-7.8 312.32-7.7 312.32-7.5L312.32-7.5Q312.32-5.48 314.2-4.41 316.07-3.35 319.32-3.35L319.32-3.35Q321.32-3.35 322.9-3.75 324.47-4.15 325.38-4.98 326.3-5.8 326.3-7.05L326.3-7.05Q326.3-9.13 324.36-10.01 322.42-10.9 318.57-11.55L318.57-11.55Q316.55-11.9 314.72-12.46 312.9-13.03 311.49-13.93 310.07-14.83 309.26-16.16 308.45-17.5 308.45-19.38L308.45-19.38Q308.45-21.8 309.88-23.49 311.32-25.18 313.77-26.06 316.22-26.95 319.22-26.95L319.22-26.95Q322.12-26.95 324.57-26.03 327.02-25.1 328.51-23.34 330-21.58 330-19L330-19Q330-18.9 330-18.76 330-18.63 330-18.5L330-18.5 325.75-18.5Q325.75-18.63 325.75-18.7 325.75-18.78 325.75-18.88L325.75-18.88Q325.75-20.33 324.82-21.26 323.9-22.2 322.42-22.66 320.95-23.13 319.27-23.13L319.27-23.13Q317.7-23.13 316.17-22.79 314.65-22.45 313.65-21.68 312.65-20.9 312.65-19.55L312.65-19.55Q312.65-18.2 313.58-17.39 314.52-16.57 316.24-16.06 317.95-15.55 320.27-15.13L320.27-15.13Q322.35-14.75 324.2-14.19 326.05-13.63 327.46-12.75 328.87-11.88 329.69-10.54 330.5-9.2 330.5-7.28L330.5-7.28Q330.5-5.33 329.61-3.88 328.72-2.43 327.16-1.45 325.6-0.48 323.56 0.01 321.52 0.5 319.22 0.5Z" opacity="1" transform="matrix(1,0,0,1,0,0)" fill="#baba0c" class="wordmark-text-0" data-fill-palette-color="primary" id="text-0"></path></svg></g></svg></g></svg></g></svg></g></svg></g></svg></g></svg></g><g mask="url(#5ba179f1-429f-4200-88e8-9cb64a22c7f1)"><g transform="matrix(3.9352, 0, 0, 3.9352, 1, 39.797948399999996)"><svg xmlns="http://www.w3.org/2000/svg" xmlns:xlink="http://www.w3.org/1999/xlink" version="1.1" x="0" y="0" viewBox="0 0 100 42.591" enable-background="new 0 0 100 42.591" xml:space="preserve" id="none" width="100" height="42.591" class="icon-none" data-fill-palette-color="accent"><path d="M19.525 24.44C14.525 24.44 10.456 28.515 10.456 33.529 10.456 38.515 14.525 42.591 19.525 42.591 24.538 42.591 28.613 38.515 28.613 33.529 28.613 28.515 24.538 24.44 19.525 24.44M19.525 38.412C16.849 38.412 14.649 36.211 14.649 33.529 14.649 30.834 16.85 28.633 19.525 28.633 22.22 28.633 24.414 30.834 24.414 33.529 24.414 36.21 22.22 38.412 19.525 38.412" fill="#801313" data-fill-palette-color="accent"></path><path d="M80.632 24.44C75.625 24.44 71.556 28.515 71.556 33.529 71.556 38.515 75.625 42.591 80.632 42.591 85.638 42.591 89.7 38.515 89.7 33.529 89.7 28.515 85.638 24.44 80.632 24.44M80.632 38.412C77.937 38.412 75.742 36.211 75.742 33.529 75.742 30.834 77.936 28.633 80.632 28.633S85.521 30.834 85.521 33.529C85.521 36.21 83.327 38.412 80.632 38.412" fill="#801313" data-fill-palette-color="accent"></path><path d="M98.249 26.732C98.249 17.917 92.754 16.862 92.754 16.862 84.675 15.729 70.755 15.143 70.755 15.143 69.479 12.93 63.581 0 60.149 0H30.006C25.638 0 18.483 12.604 16.914 15.456 16.914 15.456 11.432 16.394 8.848 16.993 7.416 17.318 3.438 17.396 3.438 28.503H0V33.529H8.366C8.366 27.357 13.373 22.357 19.525 22.357 25.703 22.357 30.697 27.357 30.697 33.529H69.46A11.16 11.16 0 0 1 80.632 22.357C86.797 22.357 91.797 27.357 91.797 33.529H100V26.732zM44.746 14.284H27.344C29.694 6.953 34.056 1.719 35.899 1.719H44.747zM47.988 14.284V1.719H59.277C61.601 1.719 66.699 12.357 68.131 15.078z" fill="#801313" data-fill-palette-color="accent"></path></svg></g></g></svg></g><defs></defs></svg><rect width="395.52" height="247.2" fill="none" stroke="none" visibility="hidden"></rect></g></svg></g></svg>